<?xml version="1.0" encoding="UTF-8"?>
<svg xmlns="http://www.w3.org/2000/svg" version="1.1" viewBox="0 0 155 55">
  <defs>
    <style>
      .cls-1 {
        fill: #0071bc;
      }

      .cls-2 {
        fill: #fff;
      }

      .cls-3 {
        fill: none;
      }

      .cls-4 {
        fill: #666;
      }

      .cls-5 {
        fill: #1d1d1b;
      }
    </style>
  </defs>
  <!-- Generator: Adobe Illustrator 28.7.1, SVG Export Plug-In . SVG Version: 1.2.0 Build 142)  -->
  <g>
    <g id="Capa_1">
      <g>
        <g>
          <circle class="cls-1" cx="25.75" cy="27.5" r="20"/>
          <circle class="cls-5" cx="25.75" cy="27.5" r="18.18"/>
          <g>
            <path class="cls-2" d="M21.99,31.88v-.02"/>
            <path class="cls-2" d="M22.51,31.35s-.2-.05-.44.05c-.25.11-.42.24-.42.24,0,0-.18.29-.45.38-.29.07-.53.07-.53.07,0,0-.05.2-.38.29,0,0-.05.18-.15.2,0,0,.07.35-.07.31-.16-.05-.47-.24-.36-.98,0,0-.22,0-.02-.51.2-.51.44-.55.55-.62.13-.09.38-.65.58-.49.2.15.24.35.24.35,0,0,.95.04.93-.13,0,0,.31-.18.55.24.13.22-.02.6-.02.6Z"/>
            <path class="cls-2" d="M15.73,22.17h2.75s.35-.07.69.25c.36.31,3,2.78,3.18,2.93.2.16.53.44.73,1.33.2.87.4,1.45.45,1.56.07.11.51.4.67.35.15-.04,1.55-1.44,1.87-1.98.25-.44.78-.58.95-.58s3.35-.2,3.98-.4c.64-.2.85.05,1.35.18.47.15,1.89.8,2.27.8s.71-.04.71.11-.2.18-.13.31c.09.13,3.62,1.55,4.24,1.64.64.07,1.45.05,1.45.05,0,0,.64.33-.49.65,0,0-.84.27-2.93-.62,0,0-.51-.16-.18.07s1.4.6,1.93.73c.73.16,1.27-.07,1.15.29-.11.35-.89.42-1.29.36-.4-.04-1.73-.49-2.89-1.15,0,0-.62-.22-.27.04s1.36.67,1.85,1.15c.47.47.78.84.67,1.02-.05.13-.53.33-1.16-.35-.62-.65-1.2-.8-1.29-.87-.07-.07-.36-.05-.16.13.2.18.98.71,1.24.98.25.27.58.49.16.47-.44-.02-1.31-.31-1.47-.4-.16-.09-.27-.11-.13.11.15.22.35.38.49.45.15.07.42.31.02.29-.4-.02-1.91-.55-2.82-1.8,0,0-.55.16-.78-.05-.25-.22-.78-.71-.78-.56,0,.16-.07.25.15.53.24.27-.35.25-.47.18-.13-.07-.75-.53-.75-.53,0,0-.35-.11-.25.13.11.22.64.35.18.42-.45.09-.78,0-1.24-.35-.47-.33-1.15-.82-1.24-.82s-.44.25-.56.49c-.11.22-.02.4-.31.29-.27-.09-.25-.02-.18.11.07.15,1.33,1.89,1.38,2.24.05.35.15.36-.27.51-.2.07-.8-.56-.8-.56,0,0-.02.15.04.29.05.16.22.42,0,.38-.24-.02-.78-.65-.84-.82-.04-.16-.07-.05-.07.11s-.11.55-.31.53c-.2-.02-.18,0-.2-.64,0,0-.09-.13-.15.07-.07.2-.11.65-.36.55-.29-.15-.29-.45-.4-.38s-.11.25-.29.11c-.18-.13.02-.33.18-.56.18-.24.27-.42.04-.42s-.16.13-.51.15c-.36.04-.38.33-.98.27-.62-.04-.64-.24-1.02-.13-.11.04-.04-.11.13-.15.16-.02.56-.07.53-.33-.04-.24-.16-.33,0-.69.16-.35-.18-.51-.24-.58-.05-.07-.27-.24.04-.42.31-.18.67-.35.35-.42-.33-.07-.78.45-.78.45,0,0,.16.35-.05.27-.24-.07-.82-.04-.85.33,0,0-.05.22-.16.02-.11-.2.22-.45.38-.53.18-.07.33-.07.45-.16.13-.07.33-.2.33-.27,0-.09-.24-.07-.44-.31-.2-.24-.22-1.22-.22-1.22,0,0-.09,1.05-.15,1.05-.07,0-.8-.11-.8-.47s.13-.71.05-.71-.33.35-.33.51c0,.18,0,.65-.29.18-.24-.36-.15-.55-.11-.69.02-.15.09-.33-.07-.16-.18.16-.33.53-.56.13-.22-.4.05-.73.05-.73,0,0-.27.15-.6-.29,0,0-1.07.09-.93-.15.13-.22.33-.33.07-.25-.27.05-.87.58-1.49.18,0,0,0-.07.16-.18.18-.09.02-.16-.25,0-.18.13-.38.36-1.05.09-.6-.25.2-.47.2-.47,0,0,.65-.09.85-.35.2-.24,0-.15-.09-.11-.11.04-.96.24-1.24.27-.27.02-1.2-.15-.75-.36.44-.22.16.04.85-.22,0,0,.25-.18-.13-.13-.38.04-1.05.45-1.78.18-.71-.27-.4-.38.05-.49s1.2-.24.98-.38c-.24-.15-1.05.35-1.6.25s-1.36-.69-.8-.65c.58.04,1.24.07,1.89-.16,0,0,.58-.13-.2-.07-.76.07-1.84.09-2.24-.18-.4-.27-.6-.44-.36-.44s.93.22,1.45,0c0,0,.42-.2-.11-.13-.53.07-1.65-.04-1.96-.36-.29-.35-.38-.47-.2-.49,0,0,.87.2,1.05.2s3.69.02,3.69.02"/>
          </g>
        </g>
        <g>
          <g>
            <path class="cls-2" d="M62.77,21.81c1.18,0,2.15.4,2.92,1.18s1.15,1.88,1.15,3.27v6.61h-2.78v-6.27c0-.72-.19-1.27-.58-1.65-.39-.38-.9-.57-1.55-.57-.72,0-1.29.22-1.72.67s-.65,1.11-.65,2v5.81h-2.78v-10.77h2.78v1.21c.67-1,1.74-1.51,3.21-1.51Z"/>
            <path class="cls-2" d="M78.38,31.54c-1.11,1.1-2.45,1.65-4.05,1.65s-2.94-.55-4.04-1.65c-1.1-1.1-1.65-2.44-1.65-4.04s.55-2.94,1.65-4.04c1.1-1.1,2.44-1.65,4.04-1.65s2.94.55,4.05,1.65c1.11,1.1,1.66,2.44,1.66,4.04s-.55,2.94-1.66,4.04ZM72.26,29.63c.55.56,1.25.84,2.08.84s1.53-.28,2.09-.84c.56-.56.84-1.27.84-2.13s-.28-1.57-.84-2.13c-.56-.56-1.26-.84-2.09-.84s-1.53.28-2.08.84c-.55.56-.83,1.27-.83,2.13s.28,1.57.83,2.13Z"/>
            <path class="cls-2" d="M87.13,33.19c-1.62,0-2.98-.55-4.06-1.64-1.08-1.09-1.63-2.44-1.63-4.05s.54-2.96,1.63-4.05c1.08-1.09,2.44-1.64,4.06-1.64,1.05,0,2,.25,2.86.75.86.5,1.51,1.18,1.96,2.02l-2.39,1.4c-.22-.44-.54-.8-.98-1.06-.44-.26-.93-.39-1.48-.39-.83,0-1.52.28-2.07.83-.55.55-.82,1.26-.82,2.12s.27,1.55.82,2.1c.55.55,1.23.83,2.07.83.56,0,1.06-.13,1.5-.38.44-.25.76-.6.98-1.04l2.41,1.38c-.47.85-1.14,1.53-2,2.04-.86.51-1.82.76-2.86.76Z"/>
          </g>
          <path class="cls-1" d="M100.02,32.71c-.32.32-.7.47-1.14.47s-.83-.16-1.14-.47c-.32-.32-.47-.7-.47-1.14s.15-.83.46-1.14c.31-.32.69-.47,1.15-.47s.83.16,1.14.47c.32.32.47.7.47,1.14s-.16.83-.47,1.14Z"/>
          <g>
            <path class="cls-4" d="M111.3,22.14h1.87v10.77h-1.87v-1.55c-.76,1.22-1.92,1.83-3.49,1.83-1.26,0-2.28-.4-3.04-1.2-.76-.8-1.14-1.88-1.14-3.24v-6.61h1.87v6.5c0,.88.24,1.55.71,2.04s1.13.72,1.96.72c.93,0,1.69-.29,2.26-.87.57-.58.86-1.48.86-2.68v-5.71Z"/>
            <path class="cls-4" d="M121.38,21.86c1.26,0,2.28.4,3.04,1.2.76.8,1.14,1.88,1.14,3.24v6.61h-1.87v-6.5c0-.88-.24-1.55-.71-2.04-.47-.48-1.13-.72-1.96-.72-.93,0-1.69.29-2.26.87-.57.58-.86,1.48-.86,2.68v5.71h-1.87v-10.77h1.87v1.55c.76-1.22,1.92-1.83,3.49-1.83Z"/>
            <path class="cls-4" d="M133.23,33.19c-1.62,0-2.97-.54-4.05-1.63-1.08-1.08-1.62-2.43-1.62-4.04s.54-2.95,1.62-4.04c1.08-1.08,2.43-1.63,4.05-1.63,1.06,0,2.02.26,2.86.76.85.51,1.48,1.2,1.89,2.06l-1.57.9c-.27-.57-.69-1.03-1.26-1.38s-1.21-.52-1.93-.52c-1.08,0-1.98.37-2.7,1.1-.73.73-1.09,1.64-1.09,2.74s.36,1.98,1.09,2.71c.72.73,1.63,1.1,2.7,1.1.72,0,1.36-.17,1.94-.51.57-.34,1.01-.79,1.31-1.37l1.59.93c-.46.85-1.12,1.53-1.98,2.04-.86.51-1.82.76-2.86.76Z"/>
            <path class="cls-4" d="M147.38,22.14h1.87v10.77h-1.87v-1.55c-.76,1.22-1.92,1.83-3.49,1.83-1.26,0-2.28-.4-3.04-1.2-.76-.8-1.14-1.88-1.14-3.24v-6.61h1.87v6.5c0,.88.24,1.55.71,2.04s1.13.72,1.96.72c.93,0,1.69-.29,2.26-.87.57-.58.86-1.48.86-2.68v-5.71Z"/>
          </g>
        </g>
      </g>
      <rect class="cls-3" width="155" height="55"/>
    </g>
  </g>
</svg>