<?xml version="1.0" encoding="UTF-8"?>
<svg id="Capa_1" xmlns="http://www.w3.org/2000/svg" version="1.1" viewBox="0 0 155 55">
  <!-- Generator: Adobe Illustrator 29.0.1, SVG Export Plug-In . SVG Version: 2.1.0 Build 192)  -->
  <defs>
    <style>
      .st0 {
        fill: #fff;
      }

      .st1 {
        fill: none;
      }

      .st2 {
        fill: #6f6b7a;
      }

      .st3 {
        fill: #2b2738;
      }

      .st4 {
        fill: #6e54b5;
      }
    </style>
  </defs>
  <rect class="st1" x="0" width="155" height="55"/>
  <g>
    <g>
      <circle class="st4" cx="28.2" cy="27.5" r="20"/>
      <circle class="st3" cx="28.2" cy="27.5" r="18.2"/>
      <g>
        <path class="st0" d="M24.4,31.9h0"/>
        <path class="st0" d="M24.9,31.4s-.2,0-.4,0c-.3.1-.4.2-.4.2,0,0-.2.3-.5.4-.3,0-.5,0-.5,0,0,0,0,.2-.4.3,0,0,0,.2-.1.2,0,0,0,.3,0,.3-.2,0-.5-.2-.4-1,0,0-.2,0,0-.5.2-.5.4-.5.5-.6.1,0,.4-.7.6-.5.2.1.2.3.2.3,0,0,.9,0,.9-.1,0,0,.3-.2.5.2.1.2,0,.6,0,.6Z"/>
        <path class="st0" d="M18.1,22.2h2.7s.3,0,.7.3c.4.3,3,2.8,3.2,2.9.2.2.5.4.7,1.3.2.9.4,1.5.5,1.6,0,.1.5.4.7.3.1,0,1.5-1.4,1.9-2,.3-.4.8-.6.9-.6s3.3-.2,4-.4c.6-.2.9,0,1.3.2.5.1,1.9.8,2.3.8s.7,0,.7.1-.2.2-.1.3c0,.1,3.6,1.5,4.2,1.6.6,0,1.5,0,1.5,0,0,0,.6.3-.5.7,0,0-.8.3-2.9-.6,0,0-.5-.2-.2,0s1.4.6,1.9.7c.7.2,1.3,0,1.1.3-.1.3-.9.4-1.3.4-.4,0-1.7-.5-2.9-1.1,0,0-.6-.2-.3,0s1.4.7,1.9,1.1c.5.5.8.8.7,1,0,.1-.5.3-1.2-.3-.6-.7-1.2-.8-1.3-.9,0,0-.4,0-.2.1.2.2,1,.7,1.2,1,.3.3.6.5.2.5-.4,0-1.3-.3-1.5-.4-.2,0-.3-.1-.1.1.1.2.3.4.5.5.1,0,.4.3,0,.3-.4,0-1.9-.5-2.8-1.8,0,0-.5.2-.8,0-.3-.2-.8-.7-.8-.6s0,.3.1.5c.2.3-.3.3-.5.2-.1,0-.7-.5-.7-.5,0,0-.3-.1-.3.1.1.2.6.3.2.4-.5,0-.8,0-1.2-.3-.5-.3-1.1-.8-1.2-.8s-.4.3-.6.5c-.1.2,0,.4-.3.3-.3,0-.3,0-.2.1,0,.1,1.3,1.9,1.4,2.2,0,.3.1.4-.3.5-.2,0-.8-.6-.8-.6,0,0,0,.1,0,.3,0,.2.2.4,0,.4-.2,0-.8-.7-.8-.8,0-.2,0,0,0,.1s-.1.5-.3.5c-.2,0-.2,0-.2-.6,0,0,0-.1-.1,0,0,.2-.1.7-.4.5-.3-.1-.3-.5-.4-.4s-.1.3-.3.1c-.2-.1,0-.3.2-.6.2-.2.3-.4,0-.4s-.2.1-.5.1c-.4,0-.4.3-1,.3-.6,0-.6-.2-1-.1-.1,0,0-.1.1-.1.2,0,.6,0,.5-.3,0-.2-.2-.3,0-.7.2-.3-.2-.5-.2-.6,0,0-.3-.2,0-.4.3-.2.7-.3.3-.4-.3,0-.8.5-.8.5,0,0,.2.3,0,.3-.2,0-.8,0-.9.3,0,0,0,.2-.2,0-.1-.2.2-.5.4-.5.2,0,.3,0,.5-.2.1,0,.3-.2.3-.3s-.2,0-.4-.3c-.2-.2-.2-1.2-.2-1.2,0,0,0,1.1-.1,1.1s-.8-.1-.8-.5.1-.7,0-.7-.3.3-.3.5,0,.7-.3.2c-.2-.4-.1-.5-.1-.7,0-.1,0-.3,0-.2-.2.2-.3.5-.6.1-.2-.4,0-.7,0-.7,0,0-.3.1-.6-.3,0,0-1.1,0-.9-.1.1-.2.3-.3,0-.3-.3,0-.9.6-1.5.2,0,0,0,0,.2-.2.2,0,0-.2-.3,0-.2.1-.4.4-1.1,0-.6-.3.2-.5.2-.5,0,0,.7,0,.9-.3.2-.2,0-.1,0-.1-.1,0-1,.2-1.2.3-.3,0-1.2-.1-.7-.4.4-.2.2,0,.9-.2,0,0,.3-.2-.1-.1-.4,0-1.1.5-1.8.2-.7-.3-.4-.4,0-.5s1.2-.2,1-.4c-.2-.1-1.1.3-1.6.3s-1.4-.7-.8-.7c.6,0,1.2,0,1.9-.2,0,0,.6-.1-.2,0-.8,0-1.8,0-2.2-.2-.4-.3-.6-.4-.4-.4s.9.2,1.5,0c0,0,.4-.2-.1-.1-.5,0-1.7,0-2-.4-.3-.3-.4-.5-.2-.5,0,0,.9.2,1.1.2s3.7,0,3.7,0"/>
      </g>
    </g>
    <g>
      <path class="st4" d="M97.3,32.9c-.4.4-.9.6-1.5.6s-1.1-.2-1.5-.6c-.4-.4-.6-.9-.6-1.5s.2-1.1.6-1.5.9-.6,1.5-.6,1.1.2,1.5.6c.4.4.6.9.6,1.5s-.2,1.1-.6,1.5Z"/>
      <g>
        <path class="st2" d="M109.1,21.8h1.9v11.1h-1.9v-1.6c-.8,1.3-2,1.9-3.6,1.9s-2.3-.4-3.1-1.2c-.8-.8-1.2-1.9-1.2-3.3v-6.8h1.9v6.7c0,.9.2,1.6.7,2.1.5.5,1.2.7,2,.7s1.7-.3,2.3-.9c.6-.6.9-1.5.9-2.8v-5.9Z"/>
        <path class="st2" d="M119.1,21.5c1.3,0,2.3.4,3.1,1.2.8.8,1.2,1.9,1.2,3.3v6.8h-1.9v-6.7c0-.9-.2-1.6-.7-2.1-.5-.5-1.2-.7-2-.7s-1.7.3-2.3.9c-.6.6-.9,1.5-.9,2.8v5.9h-1.9v-11.1h1.9v1.6c.8-1.3,2-1.9,3.6-1.9Z"/>
        <path class="st2" d="M130.8,33.2c-1.7,0-3.1-.6-4.2-1.7-1.1-1.1-1.7-2.5-1.7-4.2s.6-3,1.7-4.2c1.1-1.1,2.5-1.7,4.2-1.7s2.1.3,2.9.8c.9.5,1.5,1.2,1.9,2.1l-1.6.9c-.3-.6-.7-1.1-1.3-1.4-.6-.4-1.2-.5-2-.5-1.1,0-2,.4-2.8,1.1-.7.8-1.1,1.7-1.1,2.8s.4,2,1.1,2.8c.7.8,1.7,1.1,2.8,1.1s1.4-.2,2-.5c.6-.3,1-.8,1.4-1.4l1.6,1c-.5.9-1.2,1.6-2,2.1-.9.5-1.9.8-2.9.8Z"/>
        <path class="st2" d="M144.9,21.8h1.9v11.1h-1.9v-1.6c-.8,1.3-2,1.9-3.6,1.9s-2.3-.4-3.1-1.2c-.8-.8-1.2-1.9-1.2-3.3v-6.8h1.9v6.7c0,.9.2,1.6.7,2.1.5.5,1.2.7,2,.7s1.7-.3,2.3-.9c.6-.6.9-1.5.9-2.8v-5.9Z"/>
      </g>
      <g>
        <path class="st0" d="M61.7,23.9c.3-.7.7-1.2,1.3-1.6.6-.4,1.3-.5,2-.5v3.2c-.9-.1-1.6,0-2.3.5-.7.5-1,1.2-1,2.3v5.3h-2.9v-11.1h2.9v1.9Z"/>
        <path class="st0" d="M68.7,28.7c.4,1.4,1.4,2.1,3.1,2.1s1.9-.4,2.5-1.1l2.3,1.3c-1.1,1.6-2.7,2.4-4.8,2.4s-3.3-.6-4.4-1.7-1.7-2.5-1.7-4.2.5-3.1,1.6-4.2c1.1-1.1,2.5-1.7,4.2-1.7s3,.6,4,1.7c1.1,1.1,1.6,2.5,1.6,4.2s0,.8-.1,1.2h-8.3ZM68.7,26.5h5.6c-.2-.8-.5-1.3-1-1.7-.5-.4-1.1-.6-1.7-.6s-1.4.2-1.9.6c-.5.4-.8.9-1,1.6Z"/>
        <path class="st0" d="M87.5,22h2.9v11.1h-2.9v-1.3c-.9,1.1-2.1,1.6-3.6,1.6s-2.7-.6-3.8-1.7c-1.1-1.1-1.6-2.5-1.6-4.2s.5-3,1.6-4.2c1.1-1.1,2.3-1.7,3.8-1.7s2.8.5,3.6,1.6v-1.3ZM82.2,29.8c.6.6,1.3.9,2.2.9s1.6-.3,2.2-.9c.6-.6.9-1.3.9-2.2s-.3-1.7-.9-2.2c-.6-.6-1.3-.9-2.2-.9s-1.6.3-2.2.9c-.6.6-.9,1.3-.9,2.2s.3,1.7.9,2.2Z"/>
      </g>
    </g>
  </g>
</svg>