<?xml version="1.0" encoding="utf-8"?>
<!-- Generator: Adobe Illustrator 26.0.0, SVG Export Plug-In . SVG Version: 6.00 Build 0)  -->
<svg version="1.1" id="Capa_1" xmlns="http://www.w3.org/2000/svg" xmlns:xlink="http://www.w3.org/1999/xlink" x="0px" y="0px"
	 viewBox="0 0 480 480" style="enable-background:new 0 0 480 480;" xml:space="preserve">
<style type="text/css">
	.st0{fill:#0096A7;}
	.st1{fill:#FFFFFF;}
</style>
<g>
	<path class="st0" d="M240,15c30.38,0,59.85,5.95,87.58,17.68c26.79,11.33,50.86,27.56,71.52,48.23
		c20.67,20.67,36.89,44.73,48.23,71.52C459.05,180.15,465,209.62,465,240s-5.95,59.85-17.68,87.58
		c-11.33,26.79-27.56,50.86-48.23,71.52c-20.67,20.67-44.73,36.89-71.52,48.23C299.85,459.05,270.38,465,240,465
		s-59.85-5.95-87.58-17.68c-26.79-11.33-50.86-27.56-71.52-48.23c-20.67-20.67-36.89-44.73-48.23-71.52
		C20.95,299.85,15,270.38,15,240s5.95-59.85,17.68-87.58c11.33-26.79,27.56-50.86,48.23-71.52c20.67-20.67,44.73-36.89,71.52-48.23
		C180.15,20.95,209.62,15,240,15 M240,0C107.45,0,0,107.45,0,240s107.45,240,240,240s240-107.45,240-240S372.55,0,240,0L240,0z"/>
</g>
<path class="st1" d="M184.31,290.69L184.31,290.69c-0.18,2.96-1.67,3.7-3.33,4.06c-1.68,0.38-5.97,0.55-5.97,0.55
	s2.8-2.03,1.51-4.44c0,0,3.33-3.68,0.92-3.33c-2.43,0.38-5.96,4.09-5.96,4.82c0,0.73,0.55,2.6-0.73,2.21
	c-1.32-0.35-2.46-1.87,1.86-5.74c3.91-3.51,11.52-4.45,11.52-4.45s2.43-0.73,2.43,1.3C186.56,287.73,184.5,287.73,184.31,290.69
	 M167.21,300.5L167.21,300.5c-1.48,1.67-1.68,4.26-2.41,2.96c-0.73-1.3-1.49-1.3-0.73-6.11c0,0,3.14,0.37,3.14-0.56
	c0-0.92,0.18,0.93,2.04,0.93C171.1,297.72,168.7,298.83,167.21,300.5 M163.87,289.4L163.87,289.4c1.86-4.08,4.64-4.45,5.94-5.18
	c1.3-0.75,2.99-2.78,3.73-5.19c0,0,2.41-1.1,2.41,2.41s-2.23,4.99-5,6.66c-2.81,1.66-2.99,6.29-5.21,6.29
	C163.48,294.39,162,293.46,163.87,289.4 M198.08,282.18L198.08,282.18c-3.02-5.33-7.08-3.15-7.08-3.15
	c0.2,2.23-12.08,1.85-12.08,1.85s-0.38-2.58-2.98-4.61c-2.6-2.04-6.13,5.18-7.62,6.29c-1.48,1.1-4.64,1.48-7.25,8.14
	c-2.6,6.66,0.37,6.48,0.37,6.48c-1.48,9.8,2.63,12.21,4.67,12.76c2.02,0.56,0.92-3.88,0.92-3.88c1.3-0.38,1.86-2.6,1.86-2.6
	c4.27-1.3,5.01-3.69,5.01-3.69s3.17,0,6.89-1.12c3.71-1.1,5.95-4.99,5.95-4.99s2.21-1.49,5.39-2.96c3.17-1.48,5.77-0.75,5.77-0.75
	S199.75,285.13,198.08,282.18 M350.74,239.63L350.74,239.63c-2.61,1.08-2.81,0.73-9.68,0.91c-6.87,0.17-10.97-3.89-10.97-3.89
	c4.66,2.03,10.61,0.18,13.4-1.3c2.78-1.48,2.05,0,8.9,0.38c6.89,0.35,7.45,1.1,7.45,2.21C359.85,239.07,353.34,238.5,350.74,239.63
	 M328.24,244.24L328.24,244.24c-5.58,1.11-7.44-0.94-9.68-2.4c-2.23-1.48-2.23,0.17-2.23,0.17s6.87,4.27-2.96,4.27
	c-6.89,0-13.77-4.81-13.77-4.81s1.49,2.59-1.86,3.33c-5.31,1.16-9.47-2.6-9.47-2.6s-1.32,3.33-4.83,3.33
	c-7.09,0-12.46-7.2-12.46-7.2c-1.13-2.03,1.46-1.12,1.46-1.12s7.44,4.26,11.35,4.63c3.91,0.37,1.13-2.21,1.13-2.21
	s-4.29-2.98-6.71-4.45c-2.41-1.48,0.55-1.86,0.55-1.86s6.34,4.26,12.09,6.65c5.77,2.41,5.59,0.2,5.59,0.2s-6.32-4.99-7.82-6.47
	c-1.49-1.49-0.93-2.98,0.55-1.3c1.5,1.65,15.44,9.07,17.87,9.8c2.41,0.73,4.82-0.37,1.86-1.85c-2.99-1.48-7.45-6.31-9.13-8.34
	c-1.67-2.03,2.8-0.55,2.8-0.55c4.84,3.88,12.66,7.77,17.67,8.32c5.02,0.56,2.23-2.4,2.23-2.4s-6.87-3.16-8.17-5.56
	c-1.31-2.4,3.89-0.55,3.89-0.55s9.5,6.84,12.65,9.07C334,242.58,333.81,243.13,328.24,244.24 M259.62,232.03L259.62,232.03
	c-9.67,1.3-13.38,4.81-15.42,8.69c-2.04,3.89-10.23,15.19-14.87,18.7c-4.67,3.53-7.45,7.77-8.18,10.35c-0.75,2.6-2.05,5.19-3,2.21
	c-0.91-2.95-7.6-3.33-7.6-3.33c-1.5-4.98,3.88-0.92,21.56-17.38c7.41-6.9,11.16-14.98,14.14-19.63c2.96-4.61,12.08-5.71,23.79-5.71
	c11.71,0,31.24-3.89,37.74-3.89c6.52,0,0,1.66,0,1.66S269.3,230.73,259.62,232.03 M205.13,248.32L205.13,248.32
	c-1.86,2.23-5.39,0-8.73-5.54c-3.34-5.56-8-17.77-8.55-19.8c-0.57-2.05-0.76-2.05-3.54-4.63c-2.78-2.6-9.3-8.33-10.6-13.69
	c0,0-0.92-6.3,1.86-2.21c2.81,4.06,10.6,11.28,14.32,12.94c3.73,1.67,5.01,5.54,5.21,9.06c0.19,3.53,4.84,14.99,7.06,16.48
	C204.39,242.4,207,246.11,205.13,248.32 M159.41,217.96L159.41,217.96c-10.98-1.83-6.52-7.57-6.52-7.57s-3.73,0.74-6.87-2.23
	c-2.69-2.49,1.28-5.73,1.28-5.73s-10.03-0.2-8.9-6.31c1.11-6.1,15.78-2.2,15.78-2.2c2.06,1.83-0.53,0.92-4.82,1.1
	c-4.27,0.2-1.12,3.69-1.12,3.69c8.01,4.25,11.72,4.81,11.72,4.81c-9.67,0.2-7.07,4.45-0.75,5.56c6.32,1.11,4.47,1.48,4.47,1.48
	c-15.44,2.23,9.48,6.47,10.4,7.39C175.01,218.9,170.37,219.81,159.41,217.96 M437.38,255.71c0,0-10.6,0.38-18.78-0.75
	c-8.18-1.09-54.11-19.42-55.21-21.09c-1.14-1.66,1.66-2.23,1.66-4.06c0-1.84-4.26-1.3-9.3-1.3c-5.01,0-23.42-8.5-29.75-10.35
	c-6.32-1.86-9.11-5-17.48-2.41c-8.37,2.6-49.82,5.01-51.87,5.01c-2.05,0-8.94,2.03-12.28,7.57c-4.36,7.25-22.51,25.35-24.55,25.89
	c-2.05,0.56-7.62-3.14-8.55-4.62c-0.91-1.47-3.54-8.89-6.14-20.34c-2.59-11.48-6.87-14.99-9.3-17.02
	c-2.4-2.03-36.81-34.05-41.46-38.12c-4.64-4.06-9.1-3.33-9.1-3.33l-35.73,0.19c-7.05,4.82,14.32,5,17.68,5
	c3.34,0,1.48,2.03,1.48,2.03c-16.72,1.67,3.16,4.26,8.93,4.63c5.77,0.37,2.6,1.66,2.6,1.66c-7.24,0.18-10.23,4.25-4.46,5.18
	c5.77,0.93,4.09,2.21,4.09,2.21c-16,1.29-13.94-6.47-13.94-6.47c-14.52,2.79-14.32-6.28-14.32-6.28c-17.3-1.68-8.37-7.21-8.37-7.21
	s-45.55-0.19-47.96-0.19c-2.44,0-13.77-2.6-13.77-2.6c-2.41,0.2-1.3,1.84,2.59,6.29c3.91,4.45,18.6,5.74,25.5,4.81
	c6.87-0.92,1.47,1.68,1.47,1.68c-6.87,2.76-15.79,0-18.96,0c-3.18,0-0.37,2.2,4.84,5.72c5.2,3.51,19.16,3.33,29.18,2.4
	c10.05-0.91,2.41,0.93,2.41,0.93c-8.37,2.97-17.1,2.6-24.52,2.03c-7.45-0.55,3.34,7.41,10.41,8.52c7.05,1.12,17.83-5.19,20.82-3.33
	c2.97,1.85-6.9,3.51-12.84,4.98c-5.94,1.49-9.85,2.8-0.56,6.31c9.31,3.53,18.05-1.86,23.05-2.41c5.04-0.55,1.68,1.85,1.68,1.85
	c-8.92,3.15-5.39,0-11.14,2.8c-5.77,2.76,6.32,4.98,9.84,4.63c3.53-0.39,14.68-3.17,15.99-3.53c1.31-0.37,3.91-1.66,1.31,1.5
	c-2.62,3.13-11.18,4.41-11.18,4.41s-10.35,2.9-2.59,6.12c8.76,3.62,11.34,0.37,13.77-1.12c3.39-2.08,5.58-1.3,3.34,0
	c-2.24,1.3-2.24,2.21-2.24,2.21c8,5.18,15.82-1.66,19.34-2.4c3.53-0.73,0.93,0.56-0.93,3.51c-1.87,2.96,12.08,1.84,12.08,1.84
	c4.47,5.54,8.02,3.71,8.02,3.71s-3.73,4.25-0.76,9.44c3,5.18,5.03,0.37,7.27-1.67c2.23-2.04,1.28,0.37,0.93,2.21
	c-0.38,1.85-1.51,4.06,1.47,8.89c3.77,6.08,3.91,0,3.91-2.23c0-2.21,3.16-6.66,4.11-6.66c0.93,0-0.73,4.63-0.73,9.25
	c0,4.61,9.47,6.11,10.38,6.11c0.95,0,2.05-13.88,2.05-13.88s0.18,12.94,2.81,15.91c2.6,2.96,5.74,2.78,5.74,3.9
	c0,1.1-2.6,2.59-4.26,3.69c-1.67,1.11-3.72,1.11-5.96,2.03c-2.21,0.93-6.51,4.26-5.02,6.85c1.49,2.58,2.23-0.18,2.23-0.18
	c0.38-4.63,8-5.18,11-4.26c2.96,0.93,0.73-3.52,0.73-3.52s5.96-6.85,10.21-5.92c4.29,0.92-0.38,2.95-4.44,5.36
	c-4.11,2.41-1.31,4.63-0.58,5.54c0.76,0.94,5.22,2.98,3.18,7.59c-2.06,4.63-0.55,5.74,0,8.89c0.55,3.16-4.84,3.89-6.89,4.26
	c-2.06,0.37-2.98,2.22-1.67,1.84c4.87-1.39,5.19,1.12,13.19,1.68c8,0.53,8.18-3.16,12.83-3.53c4.64-0.37,3.54-2.05,6.69-2.05
	c3.17,0,1.86,2.41-0.37,5.58c-2.23,3.13-4.83,5.71-2.41,7.39c2.41,1.66,2.41-0.57,3.73-1.48c1.3-0.93,1.3,2.96,5.19,4.81
	c3.36,1.59,3.91-4.45,4.66-7.04c0.75-2.58,2.04-0.91,2.04-0.91c0.2,8.32,0,8.14,2.6,8.32c2.61,0.18,3.91-4.81,3.91-6.84
	c0-2.03,0.56-3.71,1.11-1.48c0.56,2.22,7.82,10.36,10.78,10.72c2.98,0.38,0.76-2.95,0-4.98c-0.73-2.05-0.37-3.71-0.37-3.71
	s7.74,8.04,10.23,7.22c5.58-1.86,4.46-2.21,3.73-6.65c-0.75-4.45-17.12-27.21-18.05-28.86c-0.93-1.68-1.31-2.79,2.41-1.49
	s2.62-0.92,4.09-3.89c1.49-2.95,6.14-6.28,7.27-6.28c1.1,0,9.85,6.47,15.97,10.72c6.13,4.28,10.24,5.58,16.18,4.46
	c5.95-1.13-0.92-2.59-2.23-5.57c-1.31-2.95,3.18-1.65,3.18-1.65s8.17,5.92,9.83,6.84c1.68,0.93,9.1,1.3,6.14-2.21
	c-2.96-3.52-2.05-4.81-2.05-6.86c0-2.03,7.07,4.45,10.23,7.24c3.18,2.76,10.23,0.73,10.23,0.73c11.88,16.28,31.61,23.12,36.81,23.3
	c5.21,0.2,1.48-2.78-0.38-3.7c-1.83-0.93-4.46-3.14-6.32-5.92c-1.86-2.78-0.37-2.58,1.68-1.48c2.04,1.11,13.58,4.99,19.15,5.18
	c5.59,0.19,1.31-2.6-2.04-6.1c-3.34-3.51-13.56-10.37-16.19-12.78c-2.6-2.4,1.13-2.6,2.25-1.65c1.11,0.91,8.57,2.95,16.72,11.45
	c8.2,8.54,14.32,6.12,15.26,4.45c1.38-2.46-2.61-7.21-8.91-13.32c-6.35-6.11-19.73-11.47-24.19-14.79
	c-4.46-3.34,3.73-0.37,3.73-0.37c15.06,8.5,32.34,14.23,37.57,14.78c5.19,0.56,15.42-0.17,16.91-4.79
	c1.48-4.63-5.59-1.48-14.87-3.71c-6.99-1.65-21.01-6.28-25.29-9.42c-4.27-3.16,2.41-0.95,2.41-0.95
	c27.14,11.48,38.11,7.97,38.11,7.97C445.75,259.97,437.38,255.71,437.38,255.71"/>
</svg>
