<?xml version="1.0" encoding="utf-8"?>
<!-- Generator: Adobe Illustrator 26.0.0, SVG Export Plug-In . SVG Version: 6.00 Build 0)  -->
<svg version="1.1" id="Capa_1" xmlns="http://www.w3.org/2000/svg" xmlns:xlink="http://www.w3.org/1999/xlink" x="0px" y="0px"
	 viewBox="0 0 480 480" style="enable-background:new 0 0 480 480;" xml:space="preserve">
<style type="text/css">
	.st0{fill:#0096A7;}
	.st1{fill:#FFFFFF;}
</style>
<g>
	<path class="st0" d="M240,25c29.04,0,57.19,5.68,83.68,16.89c25.6,10.83,48.59,26.33,68.35,46.09
		c19.75,19.75,35.26,42.75,46.09,68.35C449.32,182.81,455,210.96,455,240s-5.68,57.19-16.89,83.68
		c-10.83,25.6-26.33,48.59-46.09,68.35c-19.75,19.75-42.75,35.26-68.35,46.09C297.19,449.32,269.04,455,240,455
		s-57.19-5.68-83.68-16.89c-25.6-10.83-48.59-26.33-68.35-46.09c-19.75-19.75-35.26-42.75-46.09-68.35
		C30.68,297.19,25,269.04,25,240s5.68-57.19,16.89-83.68c10.83-25.6,26.33-48.59,46.09-68.35c19.75-19.75,42.75-35.26,68.35-46.09
		C182.81,30.68,210.96,25,240,25 M240,0C107.45,0,0,107.45,0,240s107.45,240,240,240s240-107.45,240-240S372.55,0,240,0L240,0z"/>
</g>
<path class="st1" d="M188.7,286.69L188.7,286.69c-0.17,2.73-1.54,3.41-3.07,3.74c-1.55,0.35-5.5,0.51-5.5,0.51s2.58-1.87,1.39-4.09
	c0,0,3.07-3.39,0.85-3.07c-2.24,0.35-5.49,3.77-5.49,4.44c0,0.67,0.5,2.39-0.67,2.04c-1.21-0.32-2.26-1.72,1.71-5.29
	c3.6-3.23,10.61-4.1,10.61-4.1s2.23-0.67,2.23,1.2C190.77,283.96,188.87,283.96,188.7,286.69 M172.95,295.72L172.95,295.72
	c-1.37,1.53-1.55,3.92-2.22,2.73c-0.67-1.19-1.38-1.19-0.67-5.63c0,0,2.9,0.34,2.9-0.52c0-0.85,0.17,0.86,1.88,0.86
	C176.54,293.16,174.33,294.19,172.95,295.72 M169.87,285.5L169.87,285.5c1.71-3.75,4.27-4.1,5.47-4.77
	c1.19-0.69,2.75-2.56,3.43-4.78c0,0,2.22-1.01,2.22,2.22c0,3.23-2.05,4.6-4.61,6.14c-2.59,1.53-2.76,5.79-4.8,5.79
	C169.52,290.1,168.15,289.24,169.87,285.5 M201.39,278.85L201.39,278.85c-2.78-4.91-6.52-2.9-6.52-2.9
	c0.18,2.06-11.13,1.7-11.13,1.7s-0.35-2.38-2.74-4.25c-2.39-1.88-5.65,4.77-7.02,5.79c-1.36,1.02-4.27,1.37-6.68,7.5
	c-2.39,6.14,0.34,5.97,0.34,5.97c-1.36,9.03,2.42,11.25,4.3,11.76c1.86,0.52,0.85-3.57,0.85-3.57c1.19-0.35,1.71-2.39,1.71-2.39
	c3.94-1.19,4.62-3.4,4.62-3.4s2.92,0,6.34-1.03c3.42-1.01,5.48-4.6,5.48-4.6s2.04-1.38,4.97-2.73c2.92-1.36,5.31-0.69,5.31-0.69
	S202.92,281.57,201.39,278.85 M342.01,239.66L342.01,239.66c-2.41,1-2.58,0.67-8.92,0.84c-6.33,0.16-10.11-3.59-10.11-3.59
	c4.29,1.87,9.77,0.17,12.35-1.19c2.56-1.37,1.89,0,8.2,0.35c6.34,0.32,6.87,1.01,6.87,2.03
	C350.39,239.14,344.4,238.62,342.01,239.66 M321.28,243.91L321.28,243.91c-5.14,1.03-6.85-0.86-8.92-2.21
	c-2.05-1.37-2.05,0.15-2.05,0.15s6.33,3.94-2.73,3.94c-6.34,0-12.69-4.43-12.69-4.43s1.38,2.39-1.71,3.06
	c-4.9,1.07-8.72-2.39-8.72-2.39s-1.21,3.07-4.45,3.07c-6.53,0-11.47-6.64-11.47-6.64c-1.04-1.87,1.35-1.03,1.35-1.03
	s6.85,3.93,10.45,4.26c3.6,0.34,1.04-2.04,1.04-2.04s-3.95-2.74-6.18-4.1c-2.22-1.36,0.51-1.71,0.51-1.71s5.84,3.92,11.14,6.13
	c5.32,2.22,5.15,0.18,5.15,0.18s-5.82-4.6-7.2-5.96c-1.38-1.38-0.86-2.74,0.5-1.2c1.38,1.52,14.22,8.36,16.46,9.03
	c2.22,0.67,4.44-0.34,1.71-1.7c-2.75-1.36-6.86-5.81-8.41-7.68c-1.54-1.87,2.58-0.51,2.58-0.51c4.46,3.58,11.66,7.16,16.27,7.67
	c4.63,0.52,2.05-2.21,2.05-2.21s-6.33-2.91-7.52-5.12c-1.21-2.21,3.58-0.51,3.58-0.51s8.75,6.3,11.65,8.35
	C326.58,242.38,326.41,242.89,321.28,243.91 M258.07,232.66L258.07,232.66c-8.9,1.2-12.32,4.43-14.21,8.01
	c-1.88,3.58-9.43,13.99-13.7,17.23c-4.3,3.25-6.86,7.16-7.54,9.54c-0.69,2.39-1.89,4.78-2.76,2.04c-0.84-2.71-7-3.07-7-3.07
	c-1.38-4.58,3.57-0.85,19.86-16.01c6.82-6.35,10.28-13.79,13.02-18.08c2.73-4.25,11.12-5.26,21.91-5.26
	c10.79,0,28.77-3.59,34.77-3.59c6.01,0,0,1.53,0,1.53S266.99,231.46,258.07,232.66 M207.88,247.66L207.88,247.66
	c-1.71,2.06-4.96,0-8.04-5.11c-3.08-5.12-7.37-16.37-7.87-18.24c-0.53-1.89-0.7-1.89-3.26-4.26c-2.56-2.39-8.57-7.67-9.76-12.61
	c0,0-0.85-5.8,1.71-2.04c2.59,3.74,9.76,10.39,13.19,11.92c3.43,1.54,4.62,5.11,4.8,8.34c0.18,3.25,4.46,13.81,6.51,15.18
	C207.2,242.21,209.6,245.62,207.88,247.66 M165.77,219.7L165.77,219.7c-10.11-1.68-6.01-6.98-6.01-6.98s-3.43,0.68-6.33-2.05
	c-2.48-2.29,1.18-5.27,1.18-5.27s-9.24-0.18-8.2-5.81c1.02-5.61,14.54-2.03,14.54-2.03c1.9,1.69-0.49,0.85-4.44,1.02
	c-3.94,0.18-1.03,3.4-1.03,3.4c7.37,3.91,10.79,4.43,10.79,4.43c-8.9,0.18-6.51,4.1-0.69,5.12c5.82,1.03,4.12,1.37,4.12,1.37
	c-14.22,2.05,8.73,5.96,9.58,6.8C180.14,220.56,175.86,221.4,165.77,219.7 M421.81,254.47c0,0-9.76,0.35-17.3-0.69
	c-7.54-1-49.85-17.89-50.85-19.42c-1.05-1.53,1.53-2.05,1.53-3.74c0-1.7-3.92-1.19-8.56-1.19c-4.62,0-21.58-7.83-27.4-9.54
	c-5.82-1.71-8.39-4.61-16.11-2.22c-7.71,2.39-45.89,4.62-47.77,4.62c-1.89,0-8.23,1.87-11.31,6.98
	c-4.02,6.68-20.73,23.35-22.61,23.85c-1.89,0.52-7.02-2.9-7.88-4.26c-0.84-1.35-3.26-8.19-5.66-18.74
	c-2.39-10.58-6.33-13.81-8.56-15.68c-2.21-1.87-33.91-31.36-38.19-35.12c-4.27-3.74-8.38-3.07-8.38-3.07l-32.91,0.17
	c-6.5,4.44,13.19,4.61,16.29,4.61c3.08,0,1.36,1.87,1.36,1.87c-15.4,1.54,2.91,3.92,8.23,4.26c5.32,0.34,2.39,1.53,2.39,1.53
	c-6.67,0.17-9.42,3.91-4.11,4.77c5.32,0.86,3.77,2.04,3.77,2.04c-14.74,1.19-12.84-5.96-12.84-5.96
	c-13.38,2.57-13.19-5.78-13.19-5.78c-15.94-1.55-7.71-6.64-7.71-6.64s-41.96-0.18-44.18-0.18c-2.25,0-12.68-2.39-12.68-2.39
	c-2.22,0.18-1.2,1.7,2.39,5.79c3.6,4.1,17.14,5.29,23.49,4.43c6.33-0.85,1.35,1.55,1.35,1.55c-6.33,2.54-14.54,0-17.47,0
	c-2.93,0-0.34,2.02,4.46,5.27c4.79,3.24,17.65,3.06,26.88,2.21c9.26-0.84,2.22,0.86,2.22,0.86c-7.71,2.73-15.75,2.39-22.59,1.87
	c-6.86-0.5,3.08,6.82,9.59,7.85c6.5,1.03,16.43-4.78,19.18-3.07c2.73,1.7-6.35,3.23-11.83,4.59c-5.47,1.38-9.07,2.58-0.52,5.81
	c8.58,3.25,16.63-1.71,21.24-2.22c4.65-0.5,1.55,1.7,1.55,1.7c-8.22,2.9-4.97,0-10.27,2.58c-5.32,2.55,5.82,4.59,9.07,4.26
	c3.25-0.36,13.52-2.92,14.73-3.25c1.21-0.34,3.6-1.53,1.21,1.38c-2.42,2.88-10.3,4.06-10.3,4.06s-9.53,2.67-2.39,5.64
	c8.07,3.33,10.45,0.34,12.68-1.03c3.12-1.91,5.14-1.19,3.08,0c-2.07,1.2-2.07,2.04-2.07,2.04c7.37,4.77,14.57-1.53,17.82-2.21
	c3.25-0.67,0.86,0.52-0.86,3.24c-1.72,2.72,11.12,1.7,11.12,1.7c4.12,5.11,7.38,3.42,7.38,3.42s-3.43,3.91-0.7,8.69
	c2.76,4.77,4.63,0.34,6.7-1.54c2.06-1.88,1.18,0.34,0.86,2.04c-0.35,1.7-1.39,3.74,1.35,8.19c3.47,5.6,3.6,0,3.6-2.05
	c0-2.04,2.91-6.14,3.78-6.14c0.86,0-0.67,4.26-0.67,8.52c0,4.25,8.72,5.63,9.56,5.63c0.87,0,1.89-12.79,1.89-12.79
	s0.17,11.92,2.59,14.65c2.39,2.73,5.29,2.56,5.29,3.59c0,1.01-2.39,2.39-3.92,3.4c-1.54,1.02-3.42,1.02-5.49,1.87
	c-2.04,0.86-5.99,3.92-4.63,6.31c1.38,2.38,2.05-0.17,2.05-0.17c0.35-4.26,7.37-4.77,10.13-3.92c2.73,0.86,0.67-3.24,0.67-3.24
	s5.49-6.31,9.41-5.46c3.95,0.85-0.35,2.72-4.09,4.94c-3.78,2.22-1.21,4.26-0.53,5.11c0.7,0.86,4.81,2.74,2.93,6.99
	c-1.9,4.26-0.51,5.29,0,8.19c0.51,2.91-4.46,3.58-6.34,3.93c-1.9,0.34-2.74,2.05-1.53,1.7c4.49-1.28,4.78,1.03,12.15,1.55
	c7.37,0.49,7.54-2.91,11.82-3.25c4.27-0.34,3.26-1.89,6.16-1.89c2.92,0,1.71,2.22-0.34,5.14c-2.06,2.88-4.45,5.26-2.22,6.81
	c2.22,1.53,2.22-0.52,3.43-1.37c1.19-0.86,1.19,2.73,4.78,4.43c3.1,1.46,3.6-4.1,4.29-6.49c0.69-2.38,1.88-0.84,1.88-0.84
	c0.18,7.67,0,7.5,2.39,7.67c2.41,0.17,3.6-4.43,3.6-6.3c0-1.87,0.52-3.42,1.02-1.36c0.52,2.04,7.2,9.55,9.93,9.87
	c2.74,0.35,0.7-2.71,0-4.59c-0.67-1.89-0.34-3.42-0.34-3.42s7.13,7.41,9.42,6.65c5.14-1.71,4.11-2.04,3.43-6.13
	c-0.69-4.1-15.77-25.07-16.63-26.59c-0.86-1.54-1.21-2.57,2.22-1.38s2.42-0.85,3.77-3.59c1.38-2.72,5.66-5.78,6.7-5.78
	c1.01,0,9.07,5.96,14.71,9.87c5.65,3.94,9.43,5.14,14.91,4.11c5.48-1.04-0.85-2.39-2.06-5.13c-1.21-2.71,2.93-1.52,2.93-1.52
	s7.52,5.46,9.06,6.3c1.54,0.86,8.38,1.19,5.66-2.04c-2.73-3.24-1.89-4.43-1.89-6.32c0-1.87,6.51,4.1,9.43,6.67
	c2.93,2.54,9.42,0.67,9.42,0.67c10.94,14.99,29.11,21.29,33.91,21.47c4.8,0.18,1.37-2.56-0.35-3.41c-1.69-0.86-4.11-2.9-5.82-5.46
	c-1.71-2.56-0.34-2.38,1.55-1.36c1.88,1.03,12.51,4.6,17.64,4.77c5.15,0.18,1.21-2.39-1.88-5.61c-3.08-3.23-12.49-9.55-14.91-11.77
	c-2.39-2.21,1.04-2.39,2.07-1.52c1.03,0.84,7.89,2.71,15.4,10.55c7.55,7.86,13.19,5.64,14.06,4.1c1.27-2.26-2.4-6.64-8.21-12.27
	c-5.85-5.62-18.17-10.56-22.28-13.63c-4.11-3.08,3.43-0.34,3.43-0.34c13.87,7.83,29.79,13.11,34.6,13.62
	c4.78,0.52,14.2-0.15,15.58-4.42c1.37-4.26-5.15-1.37-13.7-3.42c-6.44-1.52-19.35-5.78-23.29-8.68c-3.94-2.91,2.22-0.87,2.22-0.87
	c25,10.58,35.11,7.34,35.11,7.34C429.52,258.39,421.81,254.47,421.81,254.47"/>
</svg>
