<?xml version="1.0" encoding="UTF-8"?>
<svg xmlns="http://www.w3.org/2000/svg" version="1.1" viewBox="0 0 500 500">
  <defs>
    <style>
      .cls-1 {
        fill: #0071bc;
      }

      .cls-2 {
        fill: #fff;
      }

      .cls-3 {
        fill: #1d1d1b;
      }
    </style>
  </defs>
  <!-- Generator: Adobe Illustrator 28.7.1, SVG Export Plug-In . SVG Version: 1.2.0 Build 142)  -->
  <g>
    <g id="Capa_1">
      <g>
        <ellipse class="cls-1" cx="250" cy="250" rx="250" ry="250.02"/>
        <ellipse class="cls-3" cx="250" cy="250" rx="227.27" ry="227.29"/>
        <g>
          <path class="cls-2" d="M202.99,304.76v-.23"/>
          <path class="cls-2" d="M209.58,298.16s-2.5-.68-5.45.68c-3.18,1.36-5.23,2.95-5.23,2.95,0,0-2.27,3.64-5.68,4.77-3.64.91-6.59.91-6.59.91,0,0-.68,2.5-4.77,3.64,0,0-.68,2.27-1.82,2.5,0,0,.91,4.32-.91,3.86-2.04-.68-5.91-2.95-4.55-12.27,0,0-2.73,0-.23-6.36,2.5-6.36,5.45-6.82,6.82-7.73,1.59-1.14,4.77-8.18,7.27-6.14,2.5,1.82,2.95,4.32,2.95,4.32,0,0,11.82.46,11.59-1.59,0,0,3.86-2.27,6.82,2.95,1.59,2.73-.23,7.5-.23,7.5Z"/>
          <path class="cls-2" d="M124.81,183.38h34.32s4.32-.91,8.64,3.18c4.55,3.86,37.5,34.78,39.77,36.59,2.5,2.04,6.59,5.45,9.09,16.59,2.5,10.91,5,18.18,5.68,19.55.91,1.36,6.36,5,8.41,4.32,1.82-.45,19.32-17.96,23.41-24.77,3.18-5.45,9.77-7.27,11.82-7.27s41.82-2.5,49.77-5c7.95-2.5,10.68.68,16.82,2.27,5.91,1.82,23.64,10,28.41,10s8.86-.46,8.86,1.36-2.5,2.27-1.59,3.86c1.14,1.59,45.23,19.32,52.95,20.46,7.95.91,18.18.68,18.18.68,0,0,7.95,4.09-6.14,8.18,0,0-10.45,3.41-36.59-7.73,0,0-6.36-2.05-2.27.91,4.09,2.95,17.5,7.5,24.09,9.09,9.09,2.04,15.91-.91,14.32,3.64-1.36,4.32-11.14,5.23-16.14,4.55-5-.46-21.59-6.14-36.14-14.32,0,0-7.73-2.73-3.41.46,4.32,3.18,17.05,8.41,23.18,14.32,5.91,5.91,9.77,10.45,8.41,12.73-.68,1.59-6.59,4.09-14.55-4.32-7.73-8.18-15-10-16.14-10.91-.91-.91-4.55-.68-2.04,1.59,2.5,2.27,12.27,8.86,15.45,12.27,3.18,3.41,7.27,6.14,2.04,5.91-5.45-.23-16.36-3.87-18.41-5-2.04-1.14-3.41-1.36-1.59,1.36,1.82,2.73,4.32,4.77,6.14,5.68,1.82.91,5.23,3.87.23,3.64-5-.23-23.86-6.82-35.23-22.5,0,0-6.82,2.04-9.77-.68-3.18-2.73-9.77-8.86-9.77-7.05,0,2.05-.91,3.18,1.82,6.59,2.95,3.41-4.32,3.18-5.91,2.27-1.59-.91-9.32-6.59-9.32-6.59,0,0-4.32-1.36-3.18,1.59,1.36,2.73,7.96,4.32,2.27,5.23-5.68,1.14-9.77,0-15.46-4.32-5.91-4.09-14.32-10.23-15.45-10.23s-5.45,3.18-7.05,6.14c-1.36,2.73-.23,5-3.86,3.64-3.41-1.14-3.18-.23-2.27,1.36.91,1.82,16.59,23.64,17.27,27.96.68,4.32,1.82,4.55-3.41,6.36-2.5.91-10-7.05-10-7.05,0,0-.23,1.82.45,3.64.68,2.05,2.73,5.23,0,4.77-2.95-.23-9.77-8.18-10.46-10.23-.45-2.05-.91-.68-.91,1.36s-1.36,6.82-3.86,6.59c-2.5-.23-2.27,0-2.5-7.95,0,0-1.14-1.59-1.82.91-.91,2.5-1.36,8.18-4.55,6.82-3.64-1.82-3.64-5.68-5-4.77-1.36.91-1.36,3.18-3.64,1.36-2.27-1.59.23-4.09,2.27-7.05,2.27-2.95,3.41-5.23.45-5.23s-2.05,1.59-6.36,1.82c-4.55.46-4.77,4.09-12.27,3.41-7.73-.46-7.96-2.95-12.73-1.59-1.36.46-.45-1.36,1.59-1.82,2.04-.23,7.05-.91,6.59-4.09-.45-2.95-2.05-4.09,0-8.64,2.05-4.32-2.27-6.36-2.95-7.27-.68-.91-3.41-2.95.45-5.23,3.86-2.27,8.41-4.32,4.32-5.23-4.09-.91-9.77,5.68-9.77,5.68,0,0,2.04,4.32-.68,3.41-2.95-.91-10.23-.45-10.68,4.09,0,0-.68,2.73-2.05.23-1.36-2.5,2.73-5.68,4.77-6.59,2.27-.91,4.09-.91,5.68-2.05,1.59-.91,4.09-2.5,4.09-3.41,0-1.14-2.95-.91-5.45-3.86-2.5-2.95-2.73-15.23-2.73-15.23,0,0-1.14,13.18-1.82,13.18-.91,0-10-1.36-10-5.91s1.59-8.86.68-8.86-4.09,4.32-4.09,6.36c0,2.27,0,8.18-3.64,2.27-2.95-4.54-1.82-6.82-1.36-8.64.23-1.82,1.14-4.09-.91-2.04-2.27,2.04-4.09,6.59-7.05,1.59-2.73-5,.68-9.09.68-9.09,0,0-3.41,1.82-7.5-3.64,0,0-13.41,1.14-11.59-1.82,1.59-2.73,4.09-4.09.91-3.18-3.41.68-10.91,7.27-18.64,2.27,0,0,0-.91,2.04-2.27,2.27-1.14.23-2.04-3.18,0-2.27,1.59-4.77,4.55-13.18,1.14-7.5-3.18,2.5-5.91,2.5-5.91,0,0,8.18-1.14,10.68-4.32,2.5-2.95,0-1.82-1.14-1.36-1.36.45-12.04,2.95-15.45,3.41-3.41.23-15-1.82-9.32-4.55,5.45-2.73,2.04.46,10.68-2.73,0,0,3.18-2.27-1.59-1.59-4.77.46-13.18,5.68-22.27,2.27-8.86-3.41-5-4.77.68-6.14,5.68-1.36,15-2.95,12.27-4.77-2.95-1.82-13.18,4.32-20,3.18-6.82-1.14-17.05-8.64-10-8.18,7.27.46,15.45.91,23.64-2.05,0,0,7.27-1.59-2.5-.91-9.55.91-22.95,1.14-27.95-2.27-5-3.41-7.5-5.45-4.55-5.45s11.59,2.73,18.18,0c0,0,5.23-2.5-1.36-1.59-6.59.91-20.68-.46-24.54-4.55-3.64-4.32-4.77-5.91-2.5-6.14,0,0,10.91,2.5,13.18,2.5s46.14.23,46.14.23"/>
        </g>
      </g>
    </g>
  </g>
</svg>